<svg width="64" height="64" xmlns="http://www.w3.org/2000/svg">

 <g>
  <title>background</title>
  <rect fill="none" id="canvas_background" height="402" width="582" y="-1" x="-1"/>
 </g>
 <g>
  <title>Layer 1</title>
  <path id="svg_3" fill="#7f7f7f" d="m58,51l-16,0c-0.551998,0 -1,-0.448002 -1,-1l0,-18c0,-0.552 0.448002,-1 1,-1l16,0c0.551998,0 1,0.448 1,1l0,18c0,0.551998 -0.448002,1 -1,1z"/>
  <path id="svg_5" fill="#7f7f7f" d="m38,24c0,-1.105 0.895,-2 2,-2l3,0l0,-16c0,-0.552 -0.448002,-1 -1,-1l-36,0c-0.552,0 -1,0.448 -1,1l0,20c0,0.552 0.448,1 1,1l32,0l0,-3z"/>
  <path id="svg_7" d="m60,21l-13,0l0,-17c0,-1.654 -1.346001,-3 -3,-3l-40,0c-1.654,0 -3,1.346 -3,3l0,30c0,1.653999 1.346,3 3,3l12,0l0,4l-2,0c-0.552,0 -1,0.448002 -1,1s0.448,1 1,1l20,0c0.551998,0 1,-0.448002 1,-1s-0.448002,-1 -1,-1l-2,0l0,-4l5,0l0,23c0,1.653999 1.346001,3 3,3l20,0c1.653999,0 3,-1.346001 3,-3l0,-36c0,-1.653999 -1.346001,-3 -3,-3zm-21,8l22,0l0,24l-22,0l0,-24zm22,-5l0,3l-22,0l0,-3c0,-0.551001 0.449001,-1 1,-1l20,0c0.550999,0 1,0.448999 1,1zm-57,-21l40,0c0.550999,0 1,0.449 1,1l0,17l-5,0c-1.653999,0 -3,1.346001 -3,3l0,5l-34,0l0,-25c0,-0.551 0.449,-1 1,-1zm26,38l-12,0l0,-4l12,0l0,4zm-26,-6c-0.551,0 -1,-0.449001 -1,-1l0,-3l34,0l0,4l-33,0zm56,26l-20,0c-0.550999,0 -1,-0.449001 -1,-1l0,-5l22,0l0,5c0,0.550999 -0.449001,1 -1,1z"/>
  <path id="svg_8" d="m53,57l-6,0c-0.551998,0 -1,0.448002 -1,1s0.448002,1 1,1l6,0c0.551998,0 1,-0.448002 1,-1s-0.448002,-1 -1,-1z"/>
  <circle id="svg_9" r="1" cy="50" cx="58"/>
  <circle id="svg_10" r="1" cy="10" cx="15"/>
  <circle id="svg_11" r="1" cy="10" cx="19"/>
  <path id="svg_12" d="m23,11l16.585999,0l-1.292999,1.293c-0.390999,0.391 -0.390999,1.023 0,1.414c0.195,0.195001 0.451,0.293 0.707001,0.293s0.512001,-0.098 0.707001,-0.293l3,-3c0.390999,-0.391 0.390999,-1.023 0,-1.414l-3,-3c-0.390999,-0.391 -1.023003,-0.391 -1.414001,0s-0.390999,1.023 0,1.414l1.292999,1.293l-16.585999,0c-0.552,0 -1,0.448 -1,1s0.448,1 1,1z"/>
  <circle id="svg_13" r="1" cy="20" cx="33"/>
  <circle id="svg_14" r="1" cy="20" cx="29"/>
  <path id="svg_15" d="m8.293,23.707001c0.195,0.195 0.451,0.292999 0.707,0.292999s0.512,-0.098 0.707,-0.292999c0.391,-0.391001 0.391,-1.023001 0,-1.414001l-1.293,-1.292999l16.586,0c0.552,0 1,-0.448 1,-1s-0.448,-1 -1,-1l-16.586,0l1.293,-1.292999c0.391,-0.391001 0.391,-1.023001 0,-1.414001s-1.023,-0.390999 -1.414,0l-3,3c-0.391,0.391001 -0.391,1.023001 0,1.414001l3,3z"/>
  <path id="svg_16" d="m58,31c-0.551998,0 -1,0.448 -1,1l0,14c0,0.551998 0.448002,1 1,1s1,-0.448002 1,-1l0,-14c0,-0.552 -0.448002,-1 -1,-1z"/>
 </g>
</svg>